<mxfile host="65bd71144e">
    <diagram id="10QQq_u2sqwSFCWnShCV" name="setup">
        <mxGraphModel dx="1368" dy="779" grid="1" gridSize="10" guides="1" tooltips="1" connect="1" arrows="1" fold="1" page="1" pageScale="1" pageWidth="850" pageHeight="1100" math="0" shadow="0">
            <root>
                <mxCell id="0"/>
                <mxCell id="1" parent="0"/>
                <mxCell id="3" value="CLIENT - SERVER" style="text;html=1;align=center;verticalAlign=middle;whiteSpace=wrap;rounded=0;" parent="1" vertex="1">
                    <mxGeometry x="130" y="10" width="130" height="30" as="geometry"/>
                </mxCell>
                <mxCell id="25" value="SETUP" style="swimlane;fontStyle=0;childLayout=stackLayout;horizontal=1;startSize=30;horizontalStack=0;resizeParent=1;resizeParentMax=0;resizeLast=0;collapsible=1;marginBottom=0;whiteSpace=wrap;html=1;rounded=1;shadow=0;glass=0;swimlaneLine=1;strokeColor=default;gradientColor=none;swimlaneFillColor=none;fillColor=none;" parent="1" vertex="1">
                    <mxGeometry x="80" y="50" width="230" height="240" as="geometry"/>
                </mxCell>
                <mxCell id="26" value="&lt;font style=&quot;color: rgb(0, 0, 0);&quot;&gt;Load eBPF program&lt;/font&gt;&lt;div&gt;&lt;font style=&quot;color: rgb(0, 0, 0);&quot;&gt;- sockops&lt;/font&gt;&lt;/div&gt;&lt;div&gt;&lt;font style=&quot;color: rgb(0, 0, 0);&quot;&gt;- sk_msg&lt;/font&gt;&lt;/div&gt;&lt;div&gt;&lt;font style=&quot;color: rgb(0, 0, 0);&quot;&gt;- tcp_destroy_sock&lt;/font&gt;&lt;/div&gt;" style="text;strokeColor=default;fillColor=none;align=left;verticalAlign=middle;spacingLeft=4;spacingRight=4;overflow=hidden;points=[[0,0.5],[1,0.5]];portConstraint=eastwest;rotatable=0;whiteSpace=wrap;html=1;" parent="25" vertex="1">
                    <mxGeometry y="30" width="230" height="70" as="geometry"/>
                </mxCell>
                <mxCell id="27" value="&lt;div&gt;&lt;font color=&quot;#000000&quot;&gt;Setup the proxy sockets and load the them into the free sockets map (queue)&lt;/font&gt;&lt;/div&gt;" style="text;strokeColor=default;fillColor=none;align=left;verticalAlign=middle;spacingLeft=4;spacingRight=4;overflow=hidden;points=[[0,0.5],[1,0.5]];portConstraint=eastwest;rotatable=0;whiteSpace=wrap;html=1;" parent="25" vertex="1">
                    <mxGeometry y="100" width="230" height="60" as="geometry"/>
                </mxCell>
                <mxCell id="28" value="&lt;font style=&quot;color: rgb(0, 0, 0);&quot;&gt;setup RDMA:&lt;/font&gt;&lt;div&gt;&lt;font style=&quot;color: rgb(0, 0, 0);&quot;&gt;- Run the server thread&lt;/font&gt;&lt;/div&gt;&lt;div&gt;&lt;font style=&quot;color: rgb(0, 0, 0);&quot;&gt;- Run the writer threads&lt;/font&gt;&lt;/div&gt;" style="text;strokeColor=none;fillColor=none;align=left;verticalAlign=middle;spacingLeft=4;spacingRight=4;overflow=hidden;points=[[0,0.5],[1,0.5]];portConstraint=eastwest;rotatable=0;whiteSpace=wrap;html=1;" parent="25" vertex="1">
                    <mxGeometry y="160" width="230" height="80" as="geometry"/>
                </mxCell>
            </root>
        </mxGraphModel>
    </diagram>
    <diagram id="JQnjbE_imScMyXL6CQpE" name="NewConn">
        <mxGraphModel dx="776" dy="779" grid="1" gridSize="10" guides="1" tooltips="1" connect="1" arrows="1" fold="1" page="1" pageScale="1" pageWidth="850" pageHeight="1100" math="0" shadow="0">
            <root>
                <mxCell id="0"/>
                <mxCell id="1" parent="0"/>
                <mxCell id="ozanqRiqRMau86R9Twev-1" style="edgeStyle=none;html=1;entryX=0;entryY=0.5;entryDx=0;entryDy=0;rounded=1;curved=0;strokeColor=default;startArrow=classic;startFill=1;" parent="1" source="ozanqRiqRMau86R9Twev-3" target="ozanqRiqRMau86R9Twev-5" edge="1">
                    <mxGeometry relative="1" as="geometry"/>
                </mxCell>
                <mxCell id="ozanqRiqRMau86R9Twev-3" value="App C" style="rounded=1;whiteSpace=wrap;html=1;" parent="1" vertex="1">
                    <mxGeometry x="920" y="32" width="120" height="60" as="geometry"/>
                </mxCell>
                <mxCell id="ozanqRiqRMau86R9Twev-5" value="App S" style="rounded=1;whiteSpace=wrap;html=1;" parent="1" vertex="1">
                    <mxGeometry x="1900" y="32" width="120" height="60" as="geometry"/>
                </mxCell>
                <mxCell id="ozanqRiqRMau86R9Twev-6" value="socket setup" style="text;html=1;align=center;verticalAlign=middle;resizable=0;points=[];autosize=1;strokeColor=none;fillColor=none;" parent="1" vertex="1">
                    <mxGeometry x="1320" y="30" width="90" height="30" as="geometry"/>
                </mxCell>
                <mxCell id="ByBNOBIQNlqN5mawMK0N-1" value="eBPF" style="rounded=1;whiteSpace=wrap;html=1;verticalAlign=top;" parent="1" vertex="1">
                    <mxGeometry x="900" y="150" width="280" height="530" as="geometry"/>
                </mxCell>
                <mxCell id="ByBNOBIQNlqN5mawMK0N-2" value="Proxy" style="rounded=1;whiteSpace=wrap;html=1;verticalAlign=top;" parent="1" vertex="1">
                    <mxGeometry x="1210" y="150" width="210" height="540" as="geometry"/>
                </mxCell>
                <mxCell id="ByBNOBIQNlqN5mawMK0N-3" value="eBPF" style="rounded=1;whiteSpace=wrap;html=1;verticalAlign=top;" parent="1" vertex="1">
                    <mxGeometry x="1770" y="140" width="310" height="570" as="geometry"/>
                </mxCell>
                <mxCell id="ByBNOBIQNlqN5mawMK0N-4" value="Proxy" style="rounded=1;whiteSpace=wrap;html=1;verticalAlign=top;" parent="1" vertex="1">
                    <mxGeometry x="1540" y="140" width="210" height="550" as="geometry"/>
                </mxCell>
                <mxCell id="FDFj729vvK1T58CpCVC5-1" value="&lt;b style=&quot;text-wrap-mode: nowrap;&quot;&gt;SOCKOPS&lt;/b&gt;" style="swimlane;fontStyle=0;childLayout=stackLayout;horizontal=1;startSize=30;horizontalStack=0;resizeParent=1;resizeParentMax=0;resizeLast=0;collapsible=1;marginBottom=0;whiteSpace=wrap;html=1;rounded=1;" parent="1" vertex="1">
                    <mxGeometry x="910" y="190" width="260" height="210" as="geometry"/>
                </mxCell>
                <mxCell id="FDFj729vvK1T58CpCVC5-5" value="&lt;div&gt;&lt;div&gt;&lt;div&gt;&lt;font color=&quot;#000000&quot;&gt;Intercept the socket then:&lt;/font&gt;&lt;/div&gt;&lt;div&gt;&lt;font color=&quot;#000000&quot;&gt;1. Check if dport o sport are the target one&lt;/font&gt;&lt;/div&gt;&lt;div&gt;&lt;font color=&quot;#000000&quot;&gt;2. add the sk to the intercepted_sk to be able to intercept the sk_msg&lt;/font&gt;&lt;/div&gt;&lt;div&gt;&lt;font color=&quot;#000000&quot;&gt;3. Pop a free sk from the free_sk map&lt;/font&gt;&lt;/div&gt;&lt;div&gt;&lt;font color=&quot;#000000&quot;&gt;3. Add 2 association in the association map&lt;/font&gt;&lt;/div&gt;&lt;div&gt;&lt;font color=&quot;#000000&quot;&gt;- free_sk -&amp;gt; new-&amp;gt;sk&lt;/font&gt;&lt;/div&gt;&lt;div&gt;&lt;font color=&quot;#000000&quot;&gt;- new_sk -&amp;gt; free_sk&lt;/font&gt;&lt;/div&gt;&lt;div&gt;&lt;font color=&quot;#000000&quot;&gt;4. notify userspace about the new sock_id using the ring_buffer&lt;/font&gt;&lt;/div&gt;&lt;/div&gt;&lt;/div&gt;" style="text;strokeColor=none;fillColor=none;align=left;verticalAlign=middle;spacingLeft=4;spacingRight=4;overflow=hidden;points=[[0,0.5],[1,0.5]];portConstraint=eastwest;rotatable=0;whiteSpace=wrap;html=1;rounded=0;" parent="FDFj729vvK1T58CpCVC5-1" vertex="1">
                    <mxGeometry y="30" width="260" height="180" as="geometry"/>
                </mxCell>
                <mxCell id="H5gGn_xJ2epN3kOAckGc-3" value="&lt;b style=&quot;text-wrap-mode: nowrap;&quot;&gt;Proxy_C&lt;/b&gt;" style="swimlane;fontStyle=0;childLayout=stackLayout;horizontal=1;startSize=30;horizontalStack=0;resizeParent=1;resizeParentMax=0;resizeLast=0;collapsible=1;marginBottom=0;whiteSpace=wrap;html=1;rounded=1;" parent="1" vertex="1">
                    <mxGeometry x="1225" y="330" width="180" height="140" as="geometry"/>
                </mxCell>
                <mxCell id="H5gGn_xJ2epN3kOAckGc-4" value="&lt;div&gt;&lt;div&gt;&lt;div&gt;&lt;font style=&quot;color: rgb(0, 0, 0);&quot;&gt;IF CLIENT&lt;/font&gt;&lt;/div&gt;&lt;/div&gt;&lt;/div&gt;&lt;div&gt;&lt;font style=&quot;color: rgb(0, 0, 0);&quot;&gt;Start the connection handshake with the server&lt;/font&gt;&lt;/div&gt;" style="text;strokeColor=none;fillColor=none;align=left;verticalAlign=middle;spacingLeft=4;spacingRight=4;overflow=hidden;points=[[0,0.5],[1,0.5]];portConstraint=eastwest;rotatable=0;whiteSpace=wrap;html=1;rounded=0;" parent="H5gGn_xJ2epN3kOAckGc-3" vertex="1">
                    <mxGeometry y="30" width="180" height="110" as="geometry"/>
                </mxCell>
                <mxCell id="H5gGn_xJ2epN3kOAckGc-5" value="&lt;b style=&quot;text-wrap-mode: nowrap;&quot;&gt;Proxy_S&lt;/b&gt;" style="swimlane;fontStyle=0;childLayout=stackLayout;horizontal=1;startSize=30;horizontalStack=0;resizeParent=1;resizeParentMax=0;resizeLast=0;collapsible=1;marginBottom=0;whiteSpace=wrap;html=1;rounded=1;" parent="1" vertex="1">
                    <mxGeometry x="1560" y="330" width="180" height="140" as="geometry"/>
                </mxCell>
                <mxCell id="H5gGn_xJ2epN3kOAckGc-7" value="&lt;div&gt;&lt;div&gt;&lt;div&gt;&lt;font color=&quot;#000000&quot;&gt;Connection definition&lt;/font&gt;&lt;/div&gt;&lt;/div&gt;&lt;/div&gt;" style="text;strokeColor=none;fillColor=none;align=left;verticalAlign=middle;spacingLeft=4;spacingRight=4;overflow=hidden;points=[[0,0.5],[1,0.5]];portConstraint=eastwest;rotatable=0;whiteSpace=wrap;html=1;rounded=0;" parent="H5gGn_xJ2epN3kOAckGc-5" vertex="1">
                    <mxGeometry y="30" width="180" height="110" as="geometry"/>
                </mxCell>
                <mxCell id="H5gGn_xJ2epN3kOAckGc-8" value="&lt;b style=&quot;text-wrap-mode: nowrap;&quot;&gt;SOCKOPS&lt;/b&gt;" style="swimlane;fontStyle=0;childLayout=stackLayout;horizontal=1;startSize=30;horizontalStack=0;resizeParent=1;resizeParentMax=0;resizeLast=0;collapsible=1;marginBottom=0;whiteSpace=wrap;html=1;rounded=1;" parent="1" vertex="1">
                    <mxGeometry x="1780" y="190" width="260" height="210" as="geometry"/>
                </mxCell>
                <mxCell id="H5gGn_xJ2epN3kOAckGc-9" value="&lt;div&gt;&lt;div&gt;&lt;div&gt;&lt;font color=&quot;#000000&quot;&gt;Intercept the socket then:&lt;/font&gt;&lt;/div&gt;&lt;div&gt;&lt;font color=&quot;#000000&quot;&gt;1. Check if dport o sport are the target one&lt;/font&gt;&lt;/div&gt;&lt;div&gt;&lt;font color=&quot;#000000&quot;&gt;2. add the sk to the intercepted_sk to be able to intercept the sk_msg&lt;/font&gt;&lt;/div&gt;&lt;div&gt;&lt;font color=&quot;#000000&quot;&gt;3. Pop a free sk from the free_sk map&lt;/font&gt;&lt;/div&gt;&lt;div&gt;&lt;font color=&quot;#000000&quot;&gt;3. Add 2 association in the association map&lt;/font&gt;&lt;/div&gt;&lt;div&gt;&lt;font color=&quot;#000000&quot;&gt;- free_sk -&amp;gt; new-&amp;gt;sk&lt;/font&gt;&lt;/div&gt;&lt;div&gt;&lt;font color=&quot;#000000&quot;&gt;- new_sk -&amp;gt; free_sk&lt;/font&gt;&lt;/div&gt;&lt;div&gt;&lt;font color=&quot;#000000&quot;&gt;4. notify userspace about the new sock_id using the ring_buffer&lt;/font&gt;&lt;/div&gt;&lt;/div&gt;&lt;/div&gt;" style="text;strokeColor=none;fillColor=none;align=left;verticalAlign=middle;spacingLeft=4;spacingRight=4;overflow=hidden;points=[[0,0.5],[1,0.5]];portConstraint=eastwest;rotatable=0;whiteSpace=wrap;html=1;rounded=0;" parent="H5gGn_xJ2epN3kOAckGc-8" vertex="1">
                    <mxGeometry y="30" width="260" height="180" as="geometry"/>
                </mxCell>
            </root>
        </mxGraphModel>
    </diagram>
    <diagram id="eiswpTzwZLVKajcUB_4S" name="eBPF">
        <mxGraphModel dx="1368" dy="779" grid="1" gridSize="10" guides="1" tooltips="1" connect="1" arrows="1" fold="1" page="1" pageScale="1" pageWidth="850" pageHeight="1100" math="0" shadow="0">
            <root>
                <mxCell id="0"/>
                <mxCell id="1" parent="0"/>
                <mxCell id="3TEF6ytL7kjxJa_49QQJ-18" value="socket closed" style="rounded=1;whiteSpace=wrap;html=1;fontStyle=1;fontSize=16;verticalAlign=top;" parent="1" vertex="1">
                    <mxGeometry x="1050" y="571" width="450" height="269" as="geometry"/>
                </mxCell>
                <mxCell id="3TEF6ytL7kjxJa_49QQJ-19" value="&lt;b&gt;&lt;font style=&quot;font-size: 16px;&quot;&gt;Connection setup&lt;/font&gt;&lt;/b&gt;" style="rounded=1;whiteSpace=wrap;html=1;verticalAlign=top;" parent="1" vertex="1">
                    <mxGeometry x="20" y="20" width="590" height="500" as="geometry"/>
                </mxCell>
                <mxCell id="3TEF6ytL7kjxJa_49QQJ-13" value="&lt;b&gt;&lt;font style=&quot;font-size: 15px;&quot;&gt;Client send a msg to server&lt;/font&gt;&lt;/b&gt;" style="rounded=1;whiteSpace=wrap;html=1;verticalAlign=top;" parent="1" vertex="1">
                    <mxGeometry x="1040" y="90" width="450" height="250" as="geometry"/>
                </mxCell>
                <mxCell id="NCg0wbmzpaTD3jR5VVGC-1" value="intercepted_sockets" style="shape=table;startSize=30;container=1;collapsible=0;childLayout=tableLayout;fixedRows=1;rowLines=0;fontStyle=0;strokeColor=default;fontSize=12;rounded=1;" parent="1" vertex="1">
                    <mxGeometry x="655" y="320" width="130" height="91" as="geometry"/>
                </mxCell>
                <mxCell id="NCg0wbmzpaTD3jR5VVGC-2" value="" style="shape=tableRow;horizontal=0;startSize=0;swimlaneHead=0;swimlaneBody=0;top=0;left=0;bottom=0;right=0;collapsible=0;dropTarget=0;fillColor=none;points=[[0,0.5],[1,0.5]];portConstraint=eastwest;strokeColor=inherit;fontSize=12;" parent="NCg0wbmzpaTD3jR5VVGC-1" vertex="1">
                    <mxGeometry y="30" width="130" height="30" as="geometry"/>
                </mxCell>
                <mxCell id="NCg0wbmzpaTD3jR5VVGC-3" value="K" style="shape=partialRectangle;html=1;whiteSpace=wrap;connectable=0;fillColor=none;top=0;left=0;bottom=0;right=0;overflow=hidden;pointerEvents=1;strokeColor=inherit;fontSize=12;" parent="NCg0wbmzpaTD3jR5VVGC-2" vertex="1">
                    <mxGeometry width="29" height="30" as="geometry">
                        <mxRectangle width="29" height="30" as="alternateBounds"/>
                    </mxGeometry>
                </mxCell>
                <mxCell id="NCg0wbmzpaTD3jR5VVGC-4" value="sock_id" style="shape=partialRectangle;html=1;whiteSpace=wrap;connectable=0;fillColor=none;top=0;left=0;bottom=0;right=0;align=left;spacingLeft=6;overflow=hidden;strokeColor=inherit;fontSize=12;" parent="NCg0wbmzpaTD3jR5VVGC-2" vertex="1">
                    <mxGeometry x="29" width="101" height="30" as="geometry">
                        <mxRectangle width="101" height="30" as="alternateBounds"/>
                    </mxGeometry>
                </mxCell>
                <mxCell id="NCg0wbmzpaTD3jR5VVGC-5" value="" style="shape=tableRow;horizontal=0;startSize=0;swimlaneHead=0;swimlaneBody=0;top=0;left=0;bottom=0;right=0;collapsible=0;dropTarget=0;fillColor=none;points=[[0,0.5],[1,0.5]];portConstraint=eastwest;strokeColor=inherit;fontSize=12;" parent="NCg0wbmzpaTD3jR5VVGC-1" vertex="1">
                    <mxGeometry y="60" width="130" height="30" as="geometry"/>
                </mxCell>
                <mxCell id="NCg0wbmzpaTD3jR5VVGC-6" value="V" style="shape=partialRectangle;html=1;whiteSpace=wrap;connectable=0;fillColor=none;top=0;left=0;bottom=0;right=0;overflow=hidden;strokeColor=inherit;fontSize=12;" parent="NCg0wbmzpaTD3jR5VVGC-5" vertex="1">
                    <mxGeometry width="29" height="30" as="geometry">
                        <mxRectangle width="29" height="30" as="alternateBounds"/>
                    </mxGeometry>
                </mxCell>
                <mxCell id="NCg0wbmzpaTD3jR5VVGC-7" value="socker fd" style="shape=partialRectangle;html=1;whiteSpace=wrap;connectable=0;fillColor=none;top=0;left=0;bottom=0;right=0;align=left;spacingLeft=6;overflow=hidden;strokeColor=inherit;fontSize=12;" parent="NCg0wbmzpaTD3jR5VVGC-5" vertex="1">
                    <mxGeometry x="29" width="101" height="30" as="geometry">
                        <mxRectangle width="101" height="30" as="alternateBounds"/>
                    </mxGeometry>
                </mxCell>
                <mxCell id="NCg0wbmzpaTD3jR5VVGC-8" value="free_sockets" style="shape=table;startSize=30;container=1;collapsible=0;childLayout=tableLayout;fixedRows=1;rowLines=0;fontStyle=0;strokeColor=default;fontSize=12;rounded=1;" parent="1" vertex="1">
                    <mxGeometry x="660" y="440" width="130" height="61" as="geometry"/>
                </mxCell>
                <mxCell id="NCg0wbmzpaTD3jR5VVGC-9" value="" style="shape=tableRow;horizontal=0;startSize=0;swimlaneHead=0;swimlaneBody=0;top=0;left=0;bottom=0;right=0;collapsible=0;dropTarget=0;fillColor=none;points=[[0,0.5],[1,0.5]];portConstraint=eastwest;strokeColor=inherit;fontSize=12;" parent="NCg0wbmzpaTD3jR5VVGC-8" vertex="1">
                    <mxGeometry y="30" width="130" height="30" as="geometry"/>
                </mxCell>
                <mxCell id="NCg0wbmzpaTD3jR5VVGC-10" value="V" style="shape=partialRectangle;html=1;whiteSpace=wrap;connectable=0;fillColor=none;top=0;left=0;bottom=0;right=0;overflow=hidden;strokeColor=inherit;fontSize=12;" parent="NCg0wbmzpaTD3jR5VVGC-9" vertex="1">
                    <mxGeometry width="29" height="30" as="geometry">
                        <mxRectangle width="29" height="30" as="alternateBounds"/>
                    </mxGeometry>
                </mxCell>
                <mxCell id="NCg0wbmzpaTD3jR5VVGC-11" value="&lt;span style=&quot;color: rgb(0, 0, 0);&quot;&gt;sock_id&lt;/span&gt;" style="shape=partialRectangle;html=1;whiteSpace=wrap;connectable=0;fillColor=none;top=0;left=0;bottom=0;right=0;align=left;spacingLeft=6;overflow=hidden;strokeColor=inherit;fontSize=12;" parent="NCg0wbmzpaTD3jR5VVGC-9" vertex="1">
                    <mxGeometry x="29" width="101" height="30" as="geometry">
                        <mxRectangle width="101" height="30" as="alternateBounds"/>
                    </mxGeometry>
                </mxCell>
                <mxCell id="NCg0wbmzpaTD3jR5VVGC-12" value="socket_association" style="shape=table;startSize=30;container=1;collapsible=0;childLayout=tableLayout;fixedRows=1;rowLines=0;fontStyle=0;strokeColor=default;fontSize=12;rounded=1;" parent="1" vertex="1">
                    <mxGeometry x="645" y="540" width="150" height="91" as="geometry"/>
                </mxCell>
                <mxCell id="NCg0wbmzpaTD3jR5VVGC-13" value="" style="shape=tableRow;horizontal=0;startSize=0;swimlaneHead=0;swimlaneBody=0;top=0;left=0;bottom=0;right=0;collapsible=0;dropTarget=0;fillColor=none;points=[[0,0.5],[1,0.5]];portConstraint=eastwest;strokeColor=inherit;fontSize=12;" parent="NCg0wbmzpaTD3jR5VVGC-12" vertex="1">
                    <mxGeometry y="30" width="150" height="30" as="geometry"/>
                </mxCell>
                <mxCell id="NCg0wbmzpaTD3jR5VVGC-14" value="K" style="shape=partialRectangle;html=1;whiteSpace=wrap;connectable=0;fillColor=none;top=0;left=0;bottom=0;right=0;overflow=hidden;pointerEvents=1;strokeColor=inherit;fontSize=12;" parent="NCg0wbmzpaTD3jR5VVGC-13" vertex="1">
                    <mxGeometry width="33" height="30" as="geometry">
                        <mxRectangle width="33" height="30" as="alternateBounds"/>
                    </mxGeometry>
                </mxCell>
                <mxCell id="NCg0wbmzpaTD3jR5VVGC-15" value="association_t" style="shape=partialRectangle;html=1;whiteSpace=wrap;connectable=0;fillColor=none;top=0;left=0;bottom=0;right=0;align=left;spacingLeft=6;overflow=hidden;strokeColor=inherit;fontSize=12;" parent="NCg0wbmzpaTD3jR5VVGC-13" vertex="1">
                    <mxGeometry x="33" width="117" height="30" as="geometry">
                        <mxRectangle width="117" height="30" as="alternateBounds"/>
                    </mxGeometry>
                </mxCell>
                <mxCell id="NCg0wbmzpaTD3jR5VVGC-16" value="" style="shape=tableRow;horizontal=0;startSize=0;swimlaneHead=0;swimlaneBody=0;top=0;left=0;bottom=0;right=0;collapsible=0;dropTarget=0;fillColor=none;points=[[0,0.5],[1,0.5]];portConstraint=eastwest;strokeColor=inherit;fontSize=12;" parent="NCg0wbmzpaTD3jR5VVGC-12" vertex="1">
                    <mxGeometry y="60" width="150" height="30" as="geometry"/>
                </mxCell>
                <mxCell id="NCg0wbmzpaTD3jR5VVGC-17" value="V" style="shape=partialRectangle;html=1;whiteSpace=wrap;connectable=0;fillColor=none;top=0;left=0;bottom=0;right=0;overflow=hidden;strokeColor=inherit;fontSize=12;" parent="NCg0wbmzpaTD3jR5VVGC-16" vertex="1">
                    <mxGeometry width="33" height="30" as="geometry">
                        <mxRectangle width="33" height="30" as="alternateBounds"/>
                    </mxGeometry>
                </mxCell>
                <mxCell id="NCg0wbmzpaTD3jR5VVGC-18" value="&lt;span style=&quot;color: rgb(0, 0, 0);&quot;&gt;association_t&lt;/span&gt;" style="shape=partialRectangle;html=1;whiteSpace=wrap;connectable=0;fillColor=none;top=0;left=0;bottom=0;right=0;align=left;spacingLeft=6;overflow=hidden;strokeColor=inherit;fontSize=12;" parent="NCg0wbmzpaTD3jR5VVGC-16" vertex="1">
                    <mxGeometry x="33" width="117" height="30" as="geometry">
                        <mxRectangle width="117" height="30" as="alternateBounds"/>
                    </mxGeometry>
                </mxCell>
                <mxCell id="NCg0wbmzpaTD3jR5VVGC-19" value="target_ports" style="shape=table;startSize=30;container=1;collapsible=0;childLayout=tableLayout;fixedRows=1;rowLines=0;fontStyle=0;strokeColor=default;fontSize=12;rounded=1;" parent="1" vertex="1">
                    <mxGeometry x="640" y="200" width="160" height="91" as="geometry"/>
                </mxCell>
                <mxCell id="NCg0wbmzpaTD3jR5VVGC-20" value="" style="shape=tableRow;horizontal=0;startSize=0;swimlaneHead=0;swimlaneBody=0;top=0;left=0;bottom=0;right=0;collapsible=0;dropTarget=0;fillColor=none;points=[[0,0.5],[1,0.5]];portConstraint=eastwest;strokeColor=inherit;fontSize=12;" parent="NCg0wbmzpaTD3jR5VVGC-19" vertex="1">
                    <mxGeometry y="30" width="160" height="30" as="geometry"/>
                </mxCell>
                <mxCell id="NCg0wbmzpaTD3jR5VVGC-21" value="K" style="shape=partialRectangle;html=1;whiteSpace=wrap;connectable=0;fillColor=none;top=0;left=0;bottom=0;right=0;overflow=hidden;pointerEvents=1;strokeColor=inherit;fontSize=12;" parent="NCg0wbmzpaTD3jR5VVGC-20" vertex="1">
                    <mxGeometry width="35" height="30" as="geometry">
                        <mxRectangle width="35" height="30" as="alternateBounds"/>
                    </mxGeometry>
                </mxCell>
                <mxCell id="NCg0wbmzpaTD3jR5VVGC-22" value="__u16 port number" style="shape=partialRectangle;html=1;whiteSpace=wrap;connectable=0;fillColor=none;top=0;left=0;bottom=0;right=0;align=left;spacingLeft=6;overflow=hidden;strokeColor=inherit;fontSize=12;" parent="NCg0wbmzpaTD3jR5VVGC-20" vertex="1">
                    <mxGeometry x="35" width="125" height="30" as="geometry">
                        <mxRectangle width="125" height="30" as="alternateBounds"/>
                    </mxGeometry>
                </mxCell>
                <mxCell id="NCg0wbmzpaTD3jR5VVGC-23" value="" style="shape=tableRow;horizontal=0;startSize=0;swimlaneHead=0;swimlaneBody=0;top=0;left=0;bottom=0;right=0;collapsible=0;dropTarget=0;fillColor=none;points=[[0,0.5],[1,0.5]];portConstraint=eastwest;strokeColor=inherit;fontSize=12;" parent="NCg0wbmzpaTD3jR5VVGC-19" vertex="1">
                    <mxGeometry y="60" width="160" height="30" as="geometry"/>
                </mxCell>
                <mxCell id="NCg0wbmzpaTD3jR5VVGC-24" value="V" style="shape=partialRectangle;html=1;whiteSpace=wrap;connectable=0;fillColor=none;top=0;left=0;bottom=0;right=0;overflow=hidden;strokeColor=inherit;fontSize=12;" parent="NCg0wbmzpaTD3jR5VVGC-23" vertex="1">
                    <mxGeometry width="35" height="30" as="geometry">
                        <mxRectangle width="35" height="30" as="alternateBounds"/>
                    </mxGeometry>
                </mxCell>
                <mxCell id="NCg0wbmzpaTD3jR5VVGC-25" value="int (bool)" style="shape=partialRectangle;html=1;whiteSpace=wrap;connectable=0;fillColor=none;top=0;left=0;bottom=0;right=0;align=left;spacingLeft=6;overflow=hidden;strokeColor=inherit;fontSize=12;" parent="NCg0wbmzpaTD3jR5VVGC-23" vertex="1">
                    <mxGeometry x="35" width="125" height="30" as="geometry">
                        <mxRectangle width="125" height="30" as="alternateBounds"/>
                    </mxGeometry>
                </mxCell>
                <mxCell id="NCg0wbmzpaTD3jR5VVGC-26" value="server_port" style="shape=table;startSize=30;container=1;collapsible=0;childLayout=tableLayout;fixedRows=1;rowLines=0;fontStyle=0;strokeColor=default;fontSize=12;rounded=1;" parent="1" vertex="1">
                    <mxGeometry x="870" y="175" width="110" height="90" as="geometry"/>
                </mxCell>
                <mxCell id="NCg0wbmzpaTD3jR5VVGC-27" value="" style="shape=tableRow;horizontal=0;startSize=0;swimlaneHead=0;swimlaneBody=0;top=0;left=0;bottom=0;right=0;collapsible=0;dropTarget=0;fillColor=none;points=[[0,0.5],[1,0.5]];portConstraint=eastwest;strokeColor=inherit;fontSize=12;" parent="NCg0wbmzpaTD3jR5VVGC-26" vertex="1">
                    <mxGeometry y="30" width="110" height="30" as="geometry"/>
                </mxCell>
                <mxCell id="NCg0wbmzpaTD3jR5VVGC-28" value="K" style="shape=partialRectangle;html=1;whiteSpace=wrap;connectable=0;fillColor=none;top=0;left=0;bottom=0;right=0;overflow=hidden;pointerEvents=1;strokeColor=inherit;fontSize=12;" parent="NCg0wbmzpaTD3jR5VVGC-27" vertex="1">
                    <mxGeometry width="25" height="30" as="geometry">
                        <mxRectangle width="25" height="30" as="alternateBounds"/>
                    </mxGeometry>
                </mxCell>
                <mxCell id="NCg0wbmzpaTD3jR5VVGC-29" value="int (0)" style="shape=partialRectangle;html=1;whiteSpace=wrap;connectable=0;fillColor=none;top=0;left=0;bottom=0;right=0;align=left;spacingLeft=6;overflow=hidden;strokeColor=inherit;fontSize=12;" parent="NCg0wbmzpaTD3jR5VVGC-27" vertex="1">
                    <mxGeometry x="25" width="85" height="30" as="geometry">
                        <mxRectangle width="85" height="30" as="alternateBounds"/>
                    </mxGeometry>
                </mxCell>
                <mxCell id="NCg0wbmzpaTD3jR5VVGC-30" value="" style="shape=tableRow;horizontal=0;startSize=0;swimlaneHead=0;swimlaneBody=0;top=0;left=0;bottom=0;right=0;collapsible=0;dropTarget=0;fillColor=none;points=[[0,0.5],[1,0.5]];portConstraint=eastwest;strokeColor=inherit;fontSize=12;" parent="NCg0wbmzpaTD3jR5VVGC-26" vertex="1">
                    <mxGeometry y="60" width="110" height="30" as="geometry"/>
                </mxCell>
                <mxCell id="NCg0wbmzpaTD3jR5VVGC-31" value="V" style="shape=partialRectangle;html=1;whiteSpace=wrap;connectable=0;fillColor=none;top=0;left=0;bottom=0;right=0;overflow=hidden;strokeColor=inherit;fontSize=12;" parent="NCg0wbmzpaTD3jR5VVGC-30" vertex="1">
                    <mxGeometry width="25" height="30" as="geometry">
                        <mxRectangle width="25" height="30" as="alternateBounds"/>
                    </mxGeometry>
                </mxCell>
                <mxCell id="NCg0wbmzpaTD3jR5VVGC-32" value="__u16 port" style="shape=partialRectangle;html=1;whiteSpace=wrap;connectable=0;fillColor=none;top=0;left=0;bottom=0;right=0;align=left;spacingLeft=6;overflow=hidden;strokeColor=inherit;fontSize=12;" parent="NCg0wbmzpaTD3jR5VVGC-30" vertex="1">
                    <mxGeometry x="25" width="85" height="30" as="geometry">
                        <mxRectangle width="85" height="30" as="alternateBounds"/>
                    </mxGeometry>
                </mxCell>
                <mxCell id="NCg0wbmzpaTD3jR5VVGC-33" value="&lt;b style=&quot;text-wrap-mode: nowrap;&quot;&gt;SK_MSG&lt;/b&gt;" style="swimlane;fontStyle=0;childLayout=stackLayout;horizontal=1;startSize=30;horizontalStack=0;resizeParent=1;resizeParentMax=0;resizeLast=0;collapsible=1;marginBottom=0;whiteSpace=wrap;html=1;rounded=1;" parent="1" vertex="1">
                    <mxGeometry x="1115" y="160" width="330" height="120" as="geometry"/>
                </mxCell>
                <mxCell id="NCg0wbmzpaTD3jR5VVGC-34" value="1. read the dport and check if is a msg that need to be redirect to the proxy or to the app" style="text;strokeColor=default;fillColor=none;align=left;verticalAlign=middle;spacingLeft=4;spacingRight=4;overflow=hidden;points=[[0,0.5],[1,0.5]];portConstraint=eastwest;rotatable=0;whiteSpace=wrap;html=1;rounded=0;" parent="NCg0wbmzpaTD3jR5VVGC-33" vertex="1">
                    <mxGeometry y="30" width="330" height="30" as="geometry"/>
                </mxCell>
                <mxCell id="NCg0wbmzpaTD3jR5VVGC-35" value="2. depending on the direction, retrieve the association in the associationmap" style="text;strokeColor=default;fillColor=none;align=left;verticalAlign=middle;spacingLeft=4;spacingRight=4;overflow=hidden;points=[[0,0.5],[1,0.5]];portConstraint=eastwest;rotatable=0;whiteSpace=wrap;html=1;" parent="NCg0wbmzpaTD3jR5VVGC-33" vertex="1">
                    <mxGeometry y="60" width="330" height="30" as="geometry"/>
                </mxCell>
                <mxCell id="NCg0wbmzpaTD3jR5VVGC-36" value="&lt;div&gt;&lt;div&gt;&lt;font style=&quot;color: rgb(0, 0, 0);&quot;&gt;3. redirect the sk to the associate path&lt;/font&gt;&lt;/div&gt;&lt;/div&gt;" style="text;strokeColor=none;fillColor=none;align=left;verticalAlign=middle;spacingLeft=4;spacingRight=4;overflow=hidden;points=[[0,0.5],[1,0.5]];portConstraint=eastwest;rotatable=0;whiteSpace=wrap;html=1;" parent="NCg0wbmzpaTD3jR5VVGC-33" vertex="1">
                    <mxGeometry y="90" width="330" height="30" as="geometry"/>
                </mxCell>
                <mxCell id="NCg0wbmzpaTD3jR5VVGC-37" value="&lt;b style=&quot;text-wrap-mode: nowrap;&quot;&gt;SOCKPS&lt;/b&gt;" style="swimlane;fontStyle=0;childLayout=stackLayout;horizontal=1;startSize=30;horizontalStack=0;resizeParent=1;resizeParentMax=0;resizeLast=0;collapsible=1;marginBottom=0;whiteSpace=wrap;html=1;rounded=1;" parent="1" vertex="1">
                    <mxGeometry x="55" y="280" width="330" height="210" as="geometry"/>
                </mxCell>
                <mxCell id="NCg0wbmzpaTD3jR5VVGC-38" value="1. Check if dport o sport are the target one" style="text;strokeColor=default;fillColor=none;align=left;verticalAlign=middle;spacingLeft=4;spacingRight=4;overflow=hidden;points=[[0,0.5],[1,0.5]];portConstraint=eastwest;rotatable=0;whiteSpace=wrap;html=1;" parent="NCg0wbmzpaTD3jR5VVGC-37" vertex="1">
                    <mxGeometry y="30" width="330" height="30" as="geometry"/>
                </mxCell>
                <mxCell id="NCg0wbmzpaTD3jR5VVGC-39" value="2. add the sk to the intercepted_sk to be able to intercept the sk_msg" style="text;strokeColor=default;fillColor=none;align=left;verticalAlign=middle;spacingLeft=4;spacingRight=4;overflow=hidden;points=[[0,0.5],[1,0.5]];portConstraint=eastwest;rotatable=0;whiteSpace=wrap;html=1;" parent="NCg0wbmzpaTD3jR5VVGC-37" vertex="1">
                    <mxGeometry y="60" width="330" height="30" as="geometry"/>
                </mxCell>
                <mxCell id="NCg0wbmzpaTD3jR5VVGC-40" value="3. Pop a free sk from the free_sk map" style="text;strokeColor=default;fillColor=none;align=left;verticalAlign=middle;spacingLeft=4;spacingRight=4;overflow=hidden;points=[[0,0.5],[1,0.5]];portConstraint=eastwest;rotatable=0;whiteSpace=wrap;html=1;" parent="NCg0wbmzpaTD3jR5VVGC-37" vertex="1">
                    <mxGeometry y="90" width="330" height="30" as="geometry"/>
                </mxCell>
                <mxCell id="NCg0wbmzpaTD3jR5VVGC-41" value="&lt;font style=&quot;color: rgb(0, 0, 0);&quot;&gt;3. Add 2 association in the association map&lt;/font&gt;&lt;div&gt;&lt;span style=&quot;background-color: transparent;&quot;&gt;&lt;font style=&quot;color: rgb(0, 0, 0);&quot;&gt;- free_sk -&amp;gt; new-&amp;gt;sk&lt;/font&gt;&lt;/span&gt;&lt;div&gt;&lt;font style=&quot;color: rgb(0, 0, 0);&quot;&gt;- new_sk -&amp;gt; free_sk&lt;/font&gt;&lt;br&gt;&lt;/div&gt;&lt;/div&gt;" style="text;strokeColor=default;fillColor=none;align=left;verticalAlign=middle;spacingLeft=4;spacingRight=4;overflow=hidden;points=[[0,0.5],[1,0.5]];portConstraint=eastwest;rotatable=0;whiteSpace=wrap;html=1;" parent="NCg0wbmzpaTD3jR5VVGC-37" vertex="1">
                    <mxGeometry y="120" width="330" height="60" as="geometry"/>
                </mxCell>
                <mxCell id="6nvMmBbgdGSrVwAUtoIq-12" value="4. notify userspace about the new sock_id" style="text;strokeColor=default;fillColor=none;align=left;verticalAlign=middle;spacingLeft=4;spacingRight=4;overflow=hidden;points=[[0,0.5],[1,0.5]];portConstraint=eastwest;rotatable=0;whiteSpace=wrap;html=1;rounded=1;" parent="NCg0wbmzpaTD3jR5VVGC-37" vertex="1">
                    <mxGeometry y="180" width="330" height="30" as="geometry"/>
                </mxCell>
                <mxCell id="NCg0wbmzpaTD3jR5VVGC-42" value="&lt;b style=&quot;text-wrap-mode: nowrap;&quot;&gt;SK DESTROY&lt;/b&gt;" style="swimlane;fontStyle=0;childLayout=stackLayout;horizontal=1;startSize=30;horizontalStack=0;resizeParent=1;resizeParentMax=0;resizeLast=0;collapsible=1;marginBottom=0;whiteSpace=wrap;html=1;rounded=1;" parent="1" vertex="1">
                    <mxGeometry x="1115" y="670" width="330" height="120" as="geometry"/>
                </mxCell>
                <mxCell id="NCg0wbmzpaTD3jR5VVGC-43" value="1. check if the sk has any association" style="text;strokeColor=default;fillColor=none;align=left;verticalAlign=middle;spacingLeft=4;spacingRight=4;overflow=hidden;points=[[0,0.5],[1,0.5]];portConstraint=eastwest;rotatable=0;whiteSpace=wrap;html=1;" parent="NCg0wbmzpaTD3jR5VVGC-42" vertex="1">
                    <mxGeometry y="30" width="330" height="30" as="geometry"/>
                </mxCell>
                <mxCell id="NCg0wbmzpaTD3jR5VVGC-44" value="2. if yes, remove (both) the association from the association map" style="text;strokeColor=default;fillColor=none;align=left;verticalAlign=middle;spacingLeft=4;spacingRight=4;overflow=hidden;points=[[0,0.5],[1,0.5]];portConstraint=eastwest;rotatable=0;whiteSpace=wrap;html=1;" parent="NCg0wbmzpaTD3jR5VVGC-42" vertex="1">
                    <mxGeometry y="60" width="330" height="30" as="geometry"/>
                </mxCell>
                <mxCell id="NCg0wbmzpaTD3jR5VVGC-45" value="&lt;div&gt;&lt;div&gt;&lt;font style=&quot;color: rgb(0, 0, 0);&quot;&gt;3. push the free socket back to the free sk map&lt;/font&gt;&lt;/div&gt;&lt;/div&gt;" style="text;strokeColor=none;fillColor=none;align=left;verticalAlign=middle;spacingLeft=4;spacingRight=4;overflow=hidden;points=[[0,0.5],[1,0.5]];portConstraint=eastwest;rotatable=0;whiteSpace=wrap;html=1;" parent="NCg0wbmzpaTD3jR5VVGC-42" vertex="1">
                    <mxGeometry y="90" width="330" height="30" as="geometry"/>
                </mxCell>
                <mxCell id="3TEF6ytL7kjxJa_49QQJ-1" style="edgeStyle=none;html=1;entryX=0;entryY=0.5;entryDx=0;entryDy=0;rounded=1;curved=0;strokeColor=default;startArrow=classic;startFill=1;" parent="1" source="3TEF6ytL7kjxJa_49QQJ-2" target="3TEF6ytL7kjxJa_49QQJ-3" edge="1">
                    <mxGeometry relative="1" as="geometry"/>
                </mxCell>
                <mxCell id="3TEF6ytL7kjxJa_49QQJ-5" style="edgeStyle=none;html=1;" parent="1" source="3TEF6ytL7kjxJa_49QQJ-2" target="NCg0wbmzpaTD3jR5VVGC-37" edge="1">
                    <mxGeometry relative="1" as="geometry"/>
                </mxCell>
                <mxCell id="3TEF6ytL7kjxJa_49QQJ-2" value="App C" style="rounded=1;whiteSpace=wrap;html=1;" parent="1" vertex="1">
                    <mxGeometry x="160" y="111" width="120" height="60" as="geometry"/>
                </mxCell>
                <mxCell id="3TEF6ytL7kjxJa_49QQJ-3" value="App S" style="rounded=1;whiteSpace=wrap;html=1;" parent="1" vertex="1">
                    <mxGeometry x="440" y="111" width="120" height="60" as="geometry"/>
                </mxCell>
                <mxCell id="3TEF6ytL7kjxJa_49QQJ-4" value="3WHS" style="text;html=1;align=center;verticalAlign=middle;resizable=0;points=[];autosize=1;strokeColor=none;fillColor=none;" parent="1" vertex="1">
                    <mxGeometry x="340" y="111" width="60" height="30" as="geometry"/>
                </mxCell>
                <mxCell id="3TEF6ytL7kjxJa_49QQJ-6" style="edgeStyle=none;html=1;entryX=0;entryY=0.5;entryDx=0;entryDy=0;exitX=1;exitY=0.5;exitDx=0;exitDy=0;" parent="1" source="NCg0wbmzpaTD3jR5VVGC-38" target="NCg0wbmzpaTD3jR5VVGC-20" edge="1">
                    <mxGeometry relative="1" as="geometry">
                        <mxPoint x="400" y="330" as="sourcePoint"/>
                    </mxGeometry>
                </mxCell>
                <mxCell id="3TEF6ytL7kjxJa_49QQJ-7" style="edgeStyle=none;html=1;entryX=0;entryY=0.5;entryDx=0;entryDy=0;exitX=1;exitY=0.5;exitDx=0;exitDy=0;" parent="1" source="NCg0wbmzpaTD3jR5VVGC-39" target="NCg0wbmzpaTD3jR5VVGC-5" edge="1">
                    <mxGeometry relative="1" as="geometry"/>
                </mxCell>
                <mxCell id="3TEF6ytL7kjxJa_49QQJ-8" style="edgeStyle=none;html=1;entryX=0;entryY=0.5;entryDx=0;entryDy=0;exitX=1;exitY=0.5;exitDx=0;exitDy=0;" parent="1" source="NCg0wbmzpaTD3jR5VVGC-40" target="NCg0wbmzpaTD3jR5VVGC-9" edge="1">
                    <mxGeometry relative="1" as="geometry"/>
                </mxCell>
                <mxCell id="3TEF6ytL7kjxJa_49QQJ-9" style="edgeStyle=none;html=1;entryX=0;entryY=0.5;entryDx=0;entryDy=0;exitX=1;exitY=0.5;exitDx=0;exitDy=0;" parent="1" source="NCg0wbmzpaTD3jR5VVGC-41" target="NCg0wbmzpaTD3jR5VVGC-13" edge="1">
                    <mxGeometry relative="1" as="geometry">
                        <mxPoint x="288" y="460" as="sourcePoint"/>
                    </mxGeometry>
                </mxCell>
                <mxCell id="3TEF6ytL7kjxJa_49QQJ-11" value="2x" style="text;html=1;align=center;verticalAlign=middle;resizable=0;points=[];autosize=1;strokeColor=none;fillColor=none;" parent="1" vertex="1">
                    <mxGeometry x="440" y="470" width="40" height="30" as="geometry"/>
                </mxCell>
                <mxCell id="3TEF6ytL7kjxJa_49QQJ-20" style="edgeStyle=none;html=1;entryX=1;entryY=0.5;entryDx=0;entryDy=0;" parent="1" source="NCg0wbmzpaTD3jR5VVGC-34" target="NCg0wbmzpaTD3jR5VVGC-27" edge="1">
                    <mxGeometry relative="1" as="geometry"/>
                </mxCell>
                <mxCell id="3TEF6ytL7kjxJa_49QQJ-21" style="edgeStyle=none;html=1;entryX=1;entryY=0.5;entryDx=0;entryDy=0;exitX=0;exitY=0.5;exitDx=0;exitDy=0;" parent="1" source="NCg0wbmzpaTD3jR5VVGC-35" target="NCg0wbmzpaTD3jR5VVGC-13" edge="1">
                    <mxGeometry relative="1" as="geometry"/>
                </mxCell>
                <mxCell id="3TEF6ytL7kjxJa_49QQJ-23" style="edgeStyle=none;html=1;entryX=1;entryY=0.5;entryDx=0;entryDy=0;exitX=0;exitY=0.5;exitDx=0;exitDy=0;" parent="1" source="NCg0wbmzpaTD3jR5VVGC-43" target="NCg0wbmzpaTD3jR5VVGC-13" edge="1">
                    <mxGeometry relative="1" as="geometry"/>
                </mxCell>
                <mxCell id="3TEF6ytL7kjxJa_49QQJ-24" style="edgeStyle=none;html=1;entryX=1;entryY=0.5;entryDx=0;entryDy=0;exitX=0;exitY=0.5;exitDx=0;exitDy=0;" parent="1" source="NCg0wbmzpaTD3jR5VVGC-45" target="NCg0wbmzpaTD3jR5VVGC-9" edge="1">
                    <mxGeometry relative="1" as="geometry"/>
                </mxCell>
                <mxCell id="3TEF6ytL7kjxJa_49QQJ-25" value="2x" style="text;html=1;align=center;verticalAlign=middle;resizable=0;points=[];autosize=1;strokeColor=none;fillColor=none;" parent="1" vertex="1">
                    <mxGeometry x="880" y="631" width="40" height="30" as="geometry"/>
                </mxCell>
                <mxCell id="6nvMmBbgdGSrVwAUtoIq-8" value="Ring_buffer" style="shape=table;startSize=30;container=1;collapsible=0;childLayout=tableLayout;fixedRows=1;rowLines=0;fontStyle=0;strokeColor=default;fontSize=12;rounded=1;" parent="1" vertex="1">
                    <mxGeometry x="655" y="670" width="130" height="61" as="geometry"/>
                </mxCell>
                <mxCell id="6nvMmBbgdGSrVwAUtoIq-9" value="" style="shape=tableRow;horizontal=0;startSize=0;swimlaneHead=0;swimlaneBody=0;top=0;left=0;bottom=0;right=0;collapsible=0;dropTarget=0;fillColor=none;points=[[0,0.5],[1,0.5]];portConstraint=eastwest;strokeColor=inherit;fontSize=12;" parent="6nvMmBbgdGSrVwAUtoIq-8" vertex="1">
                    <mxGeometry y="30" width="130" height="30" as="geometry"/>
                </mxCell>
                <mxCell id="6nvMmBbgdGSrVwAUtoIq-10" value="V" style="shape=partialRectangle;html=1;whiteSpace=wrap;connectable=0;fillColor=none;top=0;left=0;bottom=0;right=0;overflow=hidden;strokeColor=inherit;fontSize=12;" parent="6nvMmBbgdGSrVwAUtoIq-9" vertex="1">
                    <mxGeometry width="29" height="30" as="geometry">
                        <mxRectangle width="29" height="30" as="alternateBounds"/>
                    </mxGeometry>
                </mxCell>
                <mxCell id="6nvMmBbgdGSrVwAUtoIq-11" value="&lt;span style=&quot;color: rgb(0, 0, 0);&quot;&gt;sock_id&lt;/span&gt;" style="shape=partialRectangle;html=1;whiteSpace=wrap;connectable=0;fillColor=none;top=0;left=0;bottom=0;right=0;align=left;spacingLeft=6;overflow=hidden;strokeColor=inherit;fontSize=12;" parent="6nvMmBbgdGSrVwAUtoIq-9" vertex="1">
                    <mxGeometry x="29" width="101" height="30" as="geometry">
                        <mxRectangle width="101" height="30" as="alternateBounds"/>
                    </mxGeometry>
                </mxCell>
                <mxCell id="6nvMmBbgdGSrVwAUtoIq-13" style="edgeStyle=none;html=1;entryX=0;entryY=0.5;entryDx=0;entryDy=0;exitX=1;exitY=0.5;exitDx=0;exitDy=0;" parent="1" source="6nvMmBbgdGSrVwAUtoIq-12" target="6nvMmBbgdGSrVwAUtoIq-8" edge="1">
                    <mxGeometry relative="1" as="geometry"/>
                </mxCell>
            </root>
        </mxGraphModel>
    </diagram>
    <diagram id="m7QW05hXfTj--BtU4VSX" name="Communication">
        <mxGraphModel dx="2461" dy="1113" grid="1" gridSize="10" guides="1" tooltips="1" connect="1" arrows="1" fold="1" page="1" pageScale="1" pageWidth="850" pageHeight="1100" math="0" shadow="0">
            <root>
                <mxCell id="0"/>
                <mxCell id="1" parent="0"/>
                <mxCell id="34iHLWdDX2jp4nSOS6IE-4" value="eBPF" style="rounded=1;whiteSpace=wrap;html=1;verticalAlign=top;" parent="1" vertex="1">
                    <mxGeometry x="-49" y="180" width="190" height="1200" as="geometry"/>
                </mxCell>
                <mxCell id="34iHLWdDX2jp4nSOS6IE-5" value="Proxy (userspace)" style="rounded=1;whiteSpace=wrap;html=1;verticalAlign=top;" parent="1" vertex="1">
                    <mxGeometry x="171" y="180" width="180" height="1180" as="geometry"/>
                </mxCell>
                <mxCell id="34iHLWdDX2jp4nSOS6IE-6" value="RDMA" style="rounded=1;whiteSpace=wrap;html=1;verticalAlign=top;" parent="1" vertex="1">
                    <mxGeometry x="381" y="180" width="180" height="1170" as="geometry"/>
                </mxCell>
                <mxCell id="34iHLWdDX2jp4nSOS6IE-7" value="RDMA" style="rounded=1;whiteSpace=wrap;html=1;verticalAlign=top;" parent="1" vertex="1">
                    <mxGeometry x="820" y="185" width="180" height="1165" as="geometry"/>
                </mxCell>
                <mxCell id="34iHLWdDX2jp4nSOS6IE-8" value="Proxy (userspace)" style="rounded=1;whiteSpace=wrap;html=1;verticalAlign=top;" parent="1" vertex="1">
                    <mxGeometry x="1040" y="180" width="180" height="1170" as="geometry"/>
                </mxCell>
                <mxCell id="34iHLWdDX2jp4nSOS6IE-9" value="eBPF" style="rounded=1;whiteSpace=wrap;html=1;verticalAlign=top;" parent="1" vertex="1">
                    <mxGeometry x="1240" y="185" width="190" height="1155" as="geometry"/>
                </mxCell>
                <mxCell id="BwzNJ2OEG7BF7iIOIaWS-1" value="CLIENT" style="text;html=1;align=center;verticalAlign=middle;whiteSpace=wrap;rounded=0;" parent="1" vertex="1">
                    <mxGeometry x="31" y="20" width="60" height="30" as="geometry"/>
                </mxCell>
                <mxCell id="BwzNJ2OEG7BF7iIOIaWS-2" value="SERVER" style="text;html=1;align=center;verticalAlign=middle;whiteSpace=wrap;rounded=0;" parent="1" vertex="1">
                    <mxGeometry x="1100" y="10" width="60" height="30" as="geometry"/>
                </mxCell>
                <mxCell id="34iHLWdDX2jp4nSOS6IE-10" style="edgeStyle=none;html=1;entryX=0;entryY=0.5;entryDx=0;entryDy=0;" parent="1" source="BwzNJ2OEG7BF7iIOIaWS-5" target="BwzNJ2OEG7BF7iIOIaWS-42" edge="1">
                    <mxGeometry relative="1" as="geometry"/>
                </mxCell>
                <mxCell id="BwzNJ2OEG7BF7iIOIaWS-5" value="App C" style="rounded=1;whiteSpace=wrap;html=1;" parent="1" vertex="1">
                    <mxGeometry x="-319" y="250" width="120" height="60" as="geometry"/>
                </mxCell>
                <mxCell id="34iHLWdDX2jp4nSOS6IE-26" style="edgeStyle=none;html=1;entryX=1;entryY=0.5;entryDx=0;entryDy=0;" parent="1" source="BwzNJ2OEG7BF7iIOIaWS-7" target="34iHLWdDX2jp4nSOS6IE-23" edge="1">
                    <mxGeometry relative="1" as="geometry"/>
                </mxCell>
                <mxCell id="BwzNJ2OEG7BF7iIOIaWS-7" value="App S" style="rounded=1;whiteSpace=wrap;html=1;" parent="1" vertex="1">
                    <mxGeometry x="1480" y="720" width="120" height="60" as="geometry"/>
                </mxCell>
                <mxCell id="BwzNJ2OEG7BF7iIOIaWS-8" value="socket send" style="text;html=1;align=center;verticalAlign=middle;resizable=0;points=[];autosize=1;strokeColor=none;fillColor=none;" parent="1" vertex="1">
                    <mxGeometry x="-169" y="240" width="90" height="30" as="geometry"/>
                </mxCell>
                <mxCell id="BwzNJ2OEG7BF7iIOIaWS-41" value="SK_MSG" style="swimlane;fontStyle=0;childLayout=stackLayout;horizontal=1;startSize=30;horizontalStack=0;resizeParent=1;resizeParentMax=0;resizeLast=0;collapsible=1;marginBottom=0;whiteSpace=wrap;html=1;" parent="1" vertex="1">
                    <mxGeometry x="-24" y="240" width="140" height="140" as="geometry"/>
                </mxCell>
                <mxCell id="BwzNJ2OEG7BF7iIOIaWS-42" value="Intercept the message" style="text;strokeColor=none;fillColor=none;align=left;verticalAlign=middle;spacingLeft=4;spacingRight=4;overflow=hidden;points=[[0,0.5],[1,0.5]];portConstraint=eastwest;rotatable=0;whiteSpace=wrap;html=1;" parent="BwzNJ2OEG7BF7iIOIaWS-41" vertex="1">
                    <mxGeometry y="30" width="140" height="30" as="geometry"/>
                </mxCell>
                <mxCell id="BwzNJ2OEG7BF7iIOIaWS-43" value="understand the direction" style="text;strokeColor=none;fillColor=none;align=left;verticalAlign=middle;spacingLeft=4;spacingRight=4;overflow=hidden;points=[[0,0.5],[1,0.5]];portConstraint=eastwest;rotatable=0;whiteSpace=wrap;html=1;" parent="BwzNJ2OEG7BF7iIOIaWS-41" vertex="1">
                    <mxGeometry y="60" width="140" height="30" as="geometry"/>
                </mxCell>
                <mxCell id="BwzNJ2OEG7BF7iIOIaWS-44" value="if it is directed to the AppS, redirect it to the userspace" style="text;strokeColor=none;fillColor=none;align=left;verticalAlign=middle;spacingLeft=4;spacingRight=4;overflow=hidden;points=[[0,0.5],[1,0.5]];portConstraint=eastwest;rotatable=0;whiteSpace=wrap;html=1;" parent="BwzNJ2OEG7BF7iIOIaWS-41" vertex="1">
                    <mxGeometry y="90" width="140" height="50" as="geometry"/>
                </mxCell>
                <mxCell id="BwzNJ2OEG7BF7iIOIaWS-45" value="USERSPACE" style="swimlane;fontStyle=0;childLayout=stackLayout;horizontal=1;startSize=30;horizontalStack=0;resizeParent=1;resizeParentMax=0;resizeLast=0;collapsible=1;marginBottom=0;whiteSpace=wrap;html=1;" parent="1" vertex="1">
                    <mxGeometry x="191" y="310" width="140" height="90" as="geometry"/>
                </mxCell>
                <mxCell id="BwzNJ2OEG7BF7iIOIaWS-46" value="with the select() receive the message" style="text;strokeColor=none;fillColor=none;align=left;verticalAlign=middle;spacingLeft=4;spacingRight=4;overflow=hidden;points=[[0,0.5],[1,0.5]];portConstraint=eastwest;rotatable=0;whiteSpace=wrap;html=1;" parent="BwzNJ2OEG7BF7iIOIaWS-45" vertex="1">
                    <mxGeometry y="30" width="140" height="30" as="geometry"/>
                </mxCell>
                <mxCell id="BwzNJ2OEG7BF7iIOIaWS-47" value="start RDMA MANAGER" style="text;strokeColor=none;fillColor=none;align=left;verticalAlign=middle;spacingLeft=4;spacingRight=4;overflow=hidden;points=[[0,0.5],[1,0.5]];portConstraint=eastwest;rotatable=0;whiteSpace=wrap;html=1;" parent="BwzNJ2OEG7BF7iIOIaWS-45" vertex="1">
                    <mxGeometry y="60" width="140" height="30" as="geometry"/>
                </mxCell>
                <mxCell id="BwzNJ2OEG7BF7iIOIaWS-49" value="RDMA MANAGER" style="swimlane;fontStyle=0;childLayout=stackLayout;horizontal=1;startSize=30;horizontalStack=0;resizeParent=1;resizeParentMax=0;resizeLast=0;collapsible=1;marginBottom=0;whiteSpace=wrap;html=1;" parent="1" vertex="1">
                    <mxGeometry x="401" y="410" width="140" height="120" as="geometry"/>
                </mxCell>
                <mxCell id="BwzNJ2OEG7BF7iIOIaWS-50" value="write the shared memory" style="text;strokeColor=none;fillColor=none;align=left;verticalAlign=middle;spacingLeft=4;spacingRight=4;overflow=hidden;points=[[0,0.5],[1,0.5]];portConstraint=eastwest;rotatable=0;whiteSpace=wrap;html=1;" parent="BwzNJ2OEG7BF7iIOIaWS-49" vertex="1">
                    <mxGeometry y="30" width="140" height="30" as="geometry"/>
                </mxCell>
                <mxCell id="BwzNJ2OEG7BF7iIOIaWS-51" value="notify the other side" style="text;strokeColor=none;fillColor=none;align=left;verticalAlign=middle;spacingLeft=4;spacingRight=4;overflow=hidden;points=[[0,0.5],[1,0.5]];portConstraint=eastwest;rotatable=0;whiteSpace=wrap;html=1;" parent="BwzNJ2OEG7BF7iIOIaWS-49" vertex="1">
                    <mxGeometry y="60" width="140" height="30" as="geometry"/>
                </mxCell>
                <mxCell id="BwzNJ2OEG7BF7iIOIaWS-52" value="poll the data_ready bit in the server mem" style="text;strokeColor=none;fillColor=none;align=left;verticalAlign=middle;spacingLeft=4;spacingRight=4;overflow=hidden;points=[[0,0.5],[1,0.5]];portConstraint=eastwest;rotatable=0;whiteSpace=wrap;html=1;" parent="BwzNJ2OEG7BF7iIOIaWS-49" vertex="1">
                    <mxGeometry y="90" width="140" height="30" as="geometry"/>
                </mxCell>
                <mxCell id="BwzNJ2OEG7BF7iIOIaWS-53" value="RDMA MANAGER" style="swimlane;fontStyle=0;childLayout=stackLayout;horizontal=1;startSize=30;horizontalStack=0;resizeParent=1;resizeParentMax=0;resizeLast=0;collapsible=1;marginBottom=0;whiteSpace=wrap;html=1;" parent="1" vertex="1">
                    <mxGeometry x="840" y="430" width="140" height="150" as="geometry"/>
                </mxCell>
                <mxCell id="BwzNJ2OEG7BF7iIOIaWS-54" value="receive the notification" style="text;strokeColor=none;fillColor=none;align=left;verticalAlign=middle;spacingLeft=4;spacingRight=4;overflow=hidden;points=[[0,0.5],[1,0.5]];portConstraint=eastwest;rotatable=0;whiteSpace=wrap;html=1;" parent="BwzNJ2OEG7BF7iIOIaWS-53" vertex="1">
                    <mxGeometry y="30" width="140" height="30" as="geometry"/>
                </mxCell>
                <mxCell id="BwzNJ2OEG7BF7iIOIaWS-55" value="read the data" style="text;strokeColor=none;fillColor=none;align=left;verticalAlign=middle;spacingLeft=4;spacingRight=4;overflow=hidden;points=[[0,0.5],[1,0.5]];portConstraint=eastwest;rotatable=0;whiteSpace=wrap;html=1;" parent="BwzNJ2OEG7BF7iIOIaWS-53" vertex="1">
                    <mxGeometry y="60" width="140" height="30" as="geometry"/>
                </mxCell>
                <mxCell id="BwzNJ2OEG7BF7iIOIaWS-56" value="write the FD of the proxy sk associated to the communication" style="text;strokeColor=none;fillColor=none;align=left;verticalAlign=middle;spacingLeft=4;spacingRight=4;overflow=hidden;points=[[0,0.5],[1,0.5]];portConstraint=eastwest;rotatable=0;whiteSpace=wrap;html=1;" parent="BwzNJ2OEG7BF7iIOIaWS-53" vertex="1">
                    <mxGeometry y="90" width="140" height="60" as="geometry"/>
                </mxCell>
                <mxCell id="34iHLWdDX2jp4nSOS6IE-15" style="edgeStyle=none;html=1;entryX=0;entryY=0.5;entryDx=0;entryDy=0;" parent="1" source="34iHLWdDX2jp4nSOS6IE-1" target="BwzNJ2OEG7BF7iIOIaWS-54" edge="1">
                    <mxGeometry relative="1" as="geometry"/>
                </mxCell>
                <mxCell id="34iHLWdDX2jp4nSOS6IE-1" value="DATA_READY&lt;div&gt;slice_id&lt;/div&gt;" style="ellipse;whiteSpace=wrap;html=1;" parent="1" vertex="1">
                    <mxGeometry x="630" y="445" width="120" height="80" as="geometry"/>
                </mxCell>
                <mxCell id="34iHLWdDX2jp4nSOS6IE-11" style="edgeStyle=none;html=1;entryX=0;entryY=0.5;entryDx=0;entryDy=0;" parent="1" source="BwzNJ2OEG7BF7iIOIaWS-44" target="BwzNJ2OEG7BF7iIOIaWS-45" edge="1">
                    <mxGeometry relative="1" as="geometry"/>
                </mxCell>
                <mxCell id="34iHLWdDX2jp4nSOS6IE-12" style="edgeStyle=none;html=1;entryX=0;entryY=0.5;entryDx=0;entryDy=0;" parent="1" source="BwzNJ2OEG7BF7iIOIaWS-47" target="BwzNJ2OEG7BF7iIOIaWS-50" edge="1">
                    <mxGeometry relative="1" as="geometry"/>
                </mxCell>
                <mxCell id="34iHLWdDX2jp4nSOS6IE-13" style="edgeStyle=none;html=1;entryX=0;entryY=0.5;entryDx=0;entryDy=0;" parent="1" source="BwzNJ2OEG7BF7iIOIaWS-51" target="34iHLWdDX2jp4nSOS6IE-1" edge="1">
                    <mxGeometry relative="1" as="geometry"/>
                </mxCell>
                <mxCell id="34iHLWdDX2jp4nSOS6IE-16" value="SK_MSG" style="swimlane;fontStyle=0;childLayout=stackLayout;horizontal=1;startSize=30;horizontalStack=0;resizeParent=1;resizeParentMax=0;resizeLast=0;collapsible=1;marginBottom=0;whiteSpace=wrap;html=1;" parent="1" vertex="1">
                    <mxGeometry x="1265" y="580" width="140" height="140" as="geometry"/>
                </mxCell>
                <mxCell id="34iHLWdDX2jp4nSOS6IE-17" value="Intercept the message" style="text;strokeColor=none;fillColor=none;align=left;verticalAlign=middle;spacingLeft=4;spacingRight=4;overflow=hidden;points=[[0,0.5],[1,0.5]];portConstraint=eastwest;rotatable=0;whiteSpace=wrap;html=1;" parent="34iHLWdDX2jp4nSOS6IE-16" vertex="1">
                    <mxGeometry y="30" width="140" height="30" as="geometry"/>
                </mxCell>
                <mxCell id="34iHLWdDX2jp4nSOS6IE-18" value="understand the direction" style="text;strokeColor=none;fillColor=none;align=left;verticalAlign=middle;spacingLeft=4;spacingRight=4;overflow=hidden;points=[[0,0.5],[1,0.5]];portConstraint=eastwest;rotatable=0;whiteSpace=wrap;html=1;" parent="34iHLWdDX2jp4nSOS6IE-16" vertex="1">
                    <mxGeometry y="60" width="140" height="30" as="geometry"/>
                </mxCell>
                <mxCell id="34iHLWdDX2jp4nSOS6IE-19" value="redirect to the app" style="text;strokeColor=none;fillColor=none;align=left;verticalAlign=middle;spacingLeft=4;spacingRight=4;overflow=hidden;points=[[0,0.5],[1,0.5]];portConstraint=eastwest;rotatable=0;whiteSpace=wrap;html=1;" parent="34iHLWdDX2jp4nSOS6IE-16" vertex="1">
                    <mxGeometry y="90" width="140" height="50" as="geometry"/>
                </mxCell>
                <mxCell id="34iHLWdDX2jp4nSOS6IE-20" style="edgeStyle=none;html=1;entryX=0;entryY=0.5;entryDx=0;entryDy=0;" parent="1" source="BwzNJ2OEG7BF7iIOIaWS-56" target="34iHLWdDX2jp4nSOS6IE-17" edge="1">
                    <mxGeometry relative="1" as="geometry"/>
                </mxCell>
                <mxCell id="34iHLWdDX2jp4nSOS6IE-21" style="edgeStyle=none;html=1;entryX=0;entryY=0.5;entryDx=0;entryDy=0;" parent="1" source="34iHLWdDX2jp4nSOS6IE-19" target="BwzNJ2OEG7BF7iIOIaWS-7" edge="1">
                    <mxGeometry relative="1" as="geometry"/>
                </mxCell>
                <mxCell id="34iHLWdDX2jp4nSOS6IE-22" value="SK_MSG" style="swimlane;fontStyle=0;childLayout=stackLayout;horizontal=1;startSize=30;horizontalStack=0;resizeParent=1;resizeParentMax=0;resizeLast=0;collapsible=1;marginBottom=0;whiteSpace=wrap;html=1;" parent="1" vertex="1">
                    <mxGeometry x="1265" y="750" width="140" height="140" as="geometry"/>
                </mxCell>
                <mxCell id="34iHLWdDX2jp4nSOS6IE-23" value="Intercept the message" style="text;strokeColor=none;fillColor=none;align=left;verticalAlign=middle;spacingLeft=4;spacingRight=4;overflow=hidden;points=[[0,0.5],[1,0.5]];portConstraint=eastwest;rotatable=0;whiteSpace=wrap;html=1;" parent="34iHLWdDX2jp4nSOS6IE-22" vertex="1">
                    <mxGeometry y="30" width="140" height="30" as="geometry"/>
                </mxCell>
                <mxCell id="34iHLWdDX2jp4nSOS6IE-24" value="understand the direction" style="text;strokeColor=none;fillColor=none;align=left;verticalAlign=middle;spacingLeft=4;spacingRight=4;overflow=hidden;points=[[0,0.5],[1,0.5]];portConstraint=eastwest;rotatable=0;whiteSpace=wrap;html=1;" parent="34iHLWdDX2jp4nSOS6IE-22" vertex="1">
                    <mxGeometry y="60" width="140" height="30" as="geometry"/>
                </mxCell>
                <mxCell id="34iHLWdDX2jp4nSOS6IE-25" value="redirect the msg to the proxy" style="text;strokeColor=none;fillColor=none;align=left;verticalAlign=middle;spacingLeft=4;spacingRight=4;overflow=hidden;points=[[0,0.5],[1,0.5]];portConstraint=eastwest;rotatable=0;whiteSpace=wrap;html=1;" parent="34iHLWdDX2jp4nSOS6IE-22" vertex="1">
                    <mxGeometry y="90" width="140" height="50" as="geometry"/>
                </mxCell>
                <mxCell id="34iHLWdDX2jp4nSOS6IE-27" value="USERSPACE" style="swimlane;fontStyle=0;childLayout=stackLayout;horizontal=1;startSize=30;horizontalStack=0;resizeParent=1;resizeParentMax=0;resizeLast=0;collapsible=1;marginBottom=0;whiteSpace=wrap;html=1;" parent="1" vertex="1">
                    <mxGeometry x="1060" y="880" width="140" height="90" as="geometry"/>
                </mxCell>
                <mxCell id="34iHLWdDX2jp4nSOS6IE-28" value="with the select() receive the message" style="text;strokeColor=none;fillColor=none;align=left;verticalAlign=middle;spacingLeft=4;spacingRight=4;overflow=hidden;points=[[0,0.5],[1,0.5]];portConstraint=eastwest;rotatable=0;whiteSpace=wrap;html=1;" parent="34iHLWdDX2jp4nSOS6IE-27" vertex="1">
                    <mxGeometry y="30" width="140" height="30" as="geometry"/>
                </mxCell>
                <mxCell id="34iHLWdDX2jp4nSOS6IE-29" value="start RDMA MANAGER" style="text;strokeColor=none;fillColor=none;align=left;verticalAlign=middle;spacingLeft=4;spacingRight=4;overflow=hidden;points=[[0,0.5],[1,0.5]];portConstraint=eastwest;rotatable=0;whiteSpace=wrap;html=1;" parent="34iHLWdDX2jp4nSOS6IE-27" vertex="1">
                    <mxGeometry y="60" width="140" height="30" as="geometry"/>
                </mxCell>
                <mxCell id="34iHLWdDX2jp4nSOS6IE-30" style="edgeStyle=none;html=1;entryX=1;entryY=0.5;entryDx=0;entryDy=0;" parent="1" source="34iHLWdDX2jp4nSOS6IE-25" target="34iHLWdDX2jp4nSOS6IE-28" edge="1">
                    <mxGeometry relative="1" as="geometry"/>
                </mxCell>
                <mxCell id="34iHLWdDX2jp4nSOS6IE-31" value="RDMA MANAGER" style="swimlane;fontStyle=0;childLayout=stackLayout;horizontal=1;startSize=30;horizontalStack=0;resizeParent=1;resizeParentMax=0;resizeLast=0;collapsible=1;marginBottom=0;whiteSpace=wrap;html=1;" parent="1" vertex="1">
                    <mxGeometry x="840" y="970" width="140" height="140" as="geometry"/>
                </mxCell>
                <mxCell id="34iHLWdDX2jp4nSOS6IE-32" value="write the shared memory" style="text;strokeColor=none;fillColor=none;align=left;verticalAlign=middle;spacingLeft=4;spacingRight=4;overflow=hidden;points=[[0,0.5],[1,0.5]];portConstraint=eastwest;rotatable=0;whiteSpace=wrap;html=1;" parent="34iHLWdDX2jp4nSOS6IE-31" vertex="1">
                    <mxGeometry y="30" width="140" height="30" as="geometry"/>
                </mxCell>
                <mxCell id="34iHLWdDX2jp4nSOS6IE-33" value="notify the other side or set the data_ready bit in server slice" style="text;strokeColor=none;fillColor=none;align=left;verticalAlign=middle;spacingLeft=4;spacingRight=4;overflow=hidden;points=[[0,0.5],[1,0.5]];portConstraint=eastwest;rotatable=0;whiteSpace=wrap;html=1;" parent="34iHLWdDX2jp4nSOS6IE-31" vertex="1">
                    <mxGeometry y="60" width="140" height="50" as="geometry"/>
                </mxCell>
                <mxCell id="34iHLWdDX2jp4nSOS6IE-34" value="poll the data_ready bit in client slice" style="text;strokeColor=none;fillColor=none;align=left;verticalAlign=middle;spacingLeft=4;spacingRight=4;overflow=hidden;points=[[0,0.5],[1,0.5]];portConstraint=eastwest;rotatable=0;whiteSpace=wrap;html=1;" parent="34iHLWdDX2jp4nSOS6IE-31" vertex="1">
                    <mxGeometry y="110" width="140" height="30" as="geometry"/>
                </mxCell>
                <mxCell id="34iHLWdDX2jp4nSOS6IE-35" style="edgeStyle=none;html=1;entryX=1;entryY=0.5;entryDx=0;entryDy=0;" parent="1" source="34iHLWdDX2jp4nSOS6IE-29" target="34iHLWdDX2jp4nSOS6IE-32" edge="1">
                    <mxGeometry relative="1" as="geometry"/>
                </mxCell>
                <mxCell id="34iHLWdDX2jp4nSOS6IE-36" value="DATA_READY&lt;div&gt;slice_id&lt;/div&gt;" style="ellipse;whiteSpace=wrap;html=1;dashed=1;" parent="1" vertex="1">
                    <mxGeometry x="640" y="1000" width="120" height="80" as="geometry"/>
                </mxCell>
                <mxCell id="34iHLWdDX2jp4nSOS6IE-37" value="RDMA MANAGER" style="swimlane;fontStyle=0;childLayout=stackLayout;horizontal=1;startSize=30;horizontalStack=0;resizeParent=1;resizeParentMax=0;resizeLast=0;collapsible=1;marginBottom=0;whiteSpace=wrap;html=1;" parent="1" vertex="1">
                    <mxGeometry x="401" y="1010" width="140" height="90" as="geometry"/>
                </mxCell>
                <mxCell id="34iHLWdDX2jp4nSOS6IE-38" value="polling see some changes" style="text;strokeColor=none;fillColor=none;align=left;verticalAlign=middle;spacingLeft=4;spacingRight=4;overflow=hidden;points=[[0,0.5],[1,0.5]];portConstraint=eastwest;rotatable=0;whiteSpace=wrap;html=1;" parent="34iHLWdDX2jp4nSOS6IE-37" vertex="1">
                    <mxGeometry y="30" width="140" height="30" as="geometry"/>
                </mxCell>
                <mxCell id="34iHLWdDX2jp4nSOS6IE-39" value="write the FD of the proxy" style="text;strokeColor=none;fillColor=none;align=left;verticalAlign=middle;spacingLeft=4;spacingRight=4;overflow=hidden;points=[[0,0.5],[1,0.5]];portConstraint=eastwest;rotatable=0;whiteSpace=wrap;html=1;" parent="34iHLWdDX2jp4nSOS6IE-37" vertex="1">
                    <mxGeometry y="60" width="140" height="30" as="geometry"/>
                </mxCell>
                <mxCell id="34iHLWdDX2jp4nSOS6IE-44" value="SK_MSG" style="swimlane;fontStyle=0;childLayout=stackLayout;horizontal=1;startSize=30;horizontalStack=0;resizeParent=1;resizeParentMax=0;resizeLast=0;collapsible=1;marginBottom=0;whiteSpace=wrap;html=1;" parent="1" vertex="1">
                    <mxGeometry x="-24" y="1170" width="140" height="140" as="geometry"/>
                </mxCell>
                <mxCell id="34iHLWdDX2jp4nSOS6IE-45" value="Intercept the message" style="text;strokeColor=none;fillColor=none;align=left;verticalAlign=middle;spacingLeft=4;spacingRight=4;overflow=hidden;points=[[0,0.5],[1,0.5]];portConstraint=eastwest;rotatable=0;whiteSpace=wrap;html=1;" parent="34iHLWdDX2jp4nSOS6IE-44" vertex="1">
                    <mxGeometry y="30" width="140" height="30" as="geometry"/>
                </mxCell>
                <mxCell id="34iHLWdDX2jp4nSOS6IE-46" value="understand the direction" style="text;strokeColor=none;fillColor=none;align=left;verticalAlign=middle;spacingLeft=4;spacingRight=4;overflow=hidden;points=[[0,0.5],[1,0.5]];portConstraint=eastwest;rotatable=0;whiteSpace=wrap;html=1;" parent="34iHLWdDX2jp4nSOS6IE-44" vertex="1">
                    <mxGeometry y="60" width="140" height="30" as="geometry"/>
                </mxCell>
                <mxCell id="34iHLWdDX2jp4nSOS6IE-47" value="redirect to the app" style="text;strokeColor=none;fillColor=none;align=left;verticalAlign=middle;spacingLeft=4;spacingRight=4;overflow=hidden;points=[[0,0.5],[1,0.5]];portConstraint=eastwest;rotatable=0;whiteSpace=wrap;html=1;" parent="34iHLWdDX2jp4nSOS6IE-44" vertex="1">
                    <mxGeometry y="90" width="140" height="50" as="geometry"/>
                </mxCell>
                <mxCell id="34iHLWdDX2jp4nSOS6IE-48" style="edgeStyle=none;html=1;entryX=1;entryY=0.5;entryDx=0;entryDy=0;" parent="1" source="34iHLWdDX2jp4nSOS6IE-39" target="34iHLWdDX2jp4nSOS6IE-45" edge="1">
                    <mxGeometry relative="1" as="geometry"/>
                </mxCell>
                <mxCell id="34iHLWdDX2jp4nSOS6IE-49" value="App C" style="rounded=1;whiteSpace=wrap;html=1;" parent="1" vertex="1">
                    <mxGeometry x="-319" y="1300" width="120" height="60" as="geometry"/>
                </mxCell>
                <mxCell id="34iHLWdDX2jp4nSOS6IE-50" style="edgeStyle=none;html=1;entryX=1;entryY=0.75;entryDx=0;entryDy=0;" parent="1" source="34iHLWdDX2jp4nSOS6IE-47" target="34iHLWdDX2jp4nSOS6IE-49" edge="1">
                    <mxGeometry relative="1" as="geometry"/>
                </mxCell>
            </root>
        </mxGraphModel>
    </diagram>
    <diagram id="VjNa2Dwn2yAOReUTHqhw" name="Memory layout">
        <mxGraphModel dx="2218" dy="779" grid="1" gridSize="10" guides="1" tooltips="1" connect="1" arrows="1" fold="1" page="1" pageScale="1" pageWidth="850" pageHeight="1100" math="0" shadow="0">
            <root>
                <mxCell id="0"/>
                <mxCell id="1" parent="0"/>
                <mxCell id="8U08_aqBoDx_YkaYGsc--11" value="&lt;div&gt;SERVER&lt;/div&gt;" style="rounded=1;whiteSpace=wrap;html=1;verticalAlign=top;movable=0;resizable=0;rotatable=0;deletable=0;editable=0;locked=1;connectable=0;" parent="1" vertex="1">
                    <mxGeometry x="-220" y="50" width="280" height="790" as="geometry"/>
                </mxCell>
                <mxCell id="yHJKGlJHgNeE4cxFXmkN-1" value="RDMA SHARED MEMORY" style="rounded=0;whiteSpace=wrap;html=1;fillColor=none;verticalAlign=top;" parent="1" vertex="1">
                    <mxGeometry x="120" y="40" width="300" height="780" as="geometry"/>
                </mxCell>
                <mxCell id="yHJKGlJHgNeE4cxFXmkN-3" value="0" style="text;html=1;align=center;verticalAlign=middle;resizable=0;points=[];autosize=1;strokeColor=none;fillColor=none;" parent="1" vertex="1">
                    <mxGeometry x="80" y="60" width="30" height="30" as="geometry"/>
                </mxCell>
                <mxCell id="yHJKGlJHgNeE4cxFXmkN-11" value="notification_t" style="rounded=0;whiteSpace=wrap;html=1;" parent="1" vertex="1">
                    <mxGeometry x="120" y="80" width="300" height="60" as="geometry"/>
                </mxCell>
                <mxCell id="MFj4vo6Bi99bwme-u5ZT-3" value="&lt;span style=&quot;color: rgb(0, 0, 0);&quot;&gt;ring_buffer_s&lt;/span&gt;" style="swimlane;fontStyle=0;childLayout=stackLayout;horizontal=1;startSize=30;horizontalStack=0;resizeParent=1;resizeParentMax=0;resizeLast=0;collapsible=1;marginBottom=0;whiteSpace=wrap;html=1;glass=0;swimlaneLine=1;" parent="1" vertex="1">
                    <mxGeometry x="120" y="140" width="300" height="280" as="geometry"/>
                </mxCell>
                <mxCell id="MFj4vo6Bi99bwme-u5ZT-4" value="rdma_flag_t" style="text;strokeColor=default;fillColor=none;align=left;verticalAlign=middle;spacingLeft=4;spacingRight=4;overflow=hidden;points=[[0,0.5],[1,0.5]];portConstraint=eastwest;rotatable=0;whiteSpace=wrap;html=1;" parent="MFj4vo6Bi99bwme-u5ZT-3" vertex="1">
                    <mxGeometry y="30" width="300" height="30" as="geometry"/>
                </mxCell>
                <mxCell id="MFj4vo6Bi99bwme-u5ZT-6" value="remote_write_index" style="text;strokeColor=default;fillColor=none;align=left;verticalAlign=middle;spacingLeft=4;spacingRight=4;overflow=hidden;points=[[0,0.5],[1,0.5]];portConstraint=eastwest;rotatable=0;whiteSpace=wrap;html=1;" parent="MFj4vo6Bi99bwme-u5ZT-3" vertex="1">
                    <mxGeometry y="60" width="300" height="30" as="geometry"/>
                </mxCell>
                <mxCell id="drY0Vkfw-3l4cMpKtFqd-2" value="local_write_index" style="text;strokeColor=default;fillColor=none;align=left;verticalAlign=middle;spacingLeft=4;spacingRight=4;overflow=hidden;points=[[0,0.5],[1,0.5]];portConstraint=eastwest;rotatable=0;whiteSpace=wrap;html=1;" parent="MFj4vo6Bi99bwme-u5ZT-3" vertex="1">
                    <mxGeometry y="90" width="300" height="30" as="geometry"/>
                </mxCell>
                <mxCell id="MFj4vo6Bi99bwme-u5ZT-5" value="read_index" style="text;strokeColor=default;fillColor=none;align=left;verticalAlign=middle;spacingLeft=4;spacingRight=4;overflow=hidden;points=[[0,0.5],[1,0.5]];portConstraint=eastwest;rotatable=0;whiteSpace=wrap;html=1;" parent="MFj4vo6Bi99bwme-u5ZT-3" vertex="1">
                    <mxGeometry y="120" width="300" height="30" as="geometry"/>
                </mxCell>
                <mxCell id="MFj4vo6Bi99bwme-u5ZT-7" value="buffer" style="text;strokeColor=default;fillColor=none;align=left;verticalAlign=middle;spacingLeft=4;spacingRight=4;overflow=hidden;points=[[0,0.5],[1,0.5]];portConstraint=eastwest;rotatable=0;whiteSpace=wrap;html=1;" parent="MFj4vo6Bi99bwme-u5ZT-3" vertex="1">
                    <mxGeometry y="150" width="300" height="130" as="geometry"/>
                </mxCell>
                <mxCell id="drY0Vkfw-3l4cMpKtFqd-21" style="edgeStyle=none;html=1;entryX=0;entryY=0.5;entryDx=0;entryDy=0;" parent="1" source="8U08_aqBoDx_YkaYGsc--2" target="drY0Vkfw-3l4cMpKtFqd-2" edge="1">
                    <mxGeometry relative="1" as="geometry"/>
                </mxCell>
                <mxCell id="drY0Vkfw-3l4cMpKtFqd-22" style="edgeStyle=none;html=1;entryX=0;entryY=0.5;entryDx=0;entryDy=0;" parent="1" source="8U08_aqBoDx_YkaYGsc--2" target="MFj4vo6Bi99bwme-u5ZT-6" edge="1">
                    <mxGeometry relative="1" as="geometry"/>
                </mxCell>
                <mxCell id="drY0Vkfw-3l4cMpKtFqd-23" style="edgeStyle=none;html=1;entryX=0;entryY=0.5;entryDx=0;entryDy=0;" parent="1" source="8U08_aqBoDx_YkaYGsc--2" target="MFj4vo6Bi99bwme-u5ZT-5" edge="1">
                    <mxGeometry relative="1" as="geometry"/>
                </mxCell>
                <mxCell id="8U08_aqBoDx_YkaYGsc--2" value="write" style="rounded=1;whiteSpace=wrap;html=1;" parent="1" vertex="1">
                    <mxGeometry x="-140" y="240" width="120" height="60" as="geometry"/>
                </mxCell>
                <mxCell id="8U08_aqBoDx_YkaYGsc--7" value="CLIENT&lt;div&gt;&lt;br&gt;&lt;/div&gt;" style="rounded=1;whiteSpace=wrap;html=1;verticalAlign=top;movable=0;resizable=0;rotatable=0;deletable=0;editable=0;locked=1;connectable=0;" parent="1" vertex="1">
                    <mxGeometry x="500" y="45" width="280" height="770" as="geometry"/>
                </mxCell>
                <mxCell id="drY0Vkfw-3l4cMpKtFqd-14" style="edgeStyle=none;html=1;entryX=1;entryY=0.5;entryDx=0;entryDy=0;" parent="1" source="8U08_aqBoDx_YkaYGsc--8" target="drY0Vkfw-3l4cMpKtFqd-31" edge="1">
                    <mxGeometry relative="1" as="geometry">
                        <mxPoint x="420" y="555" as="targetPoint"/>
                    </mxGeometry>
                </mxCell>
                <mxCell id="drY0Vkfw-3l4cMpKtFqd-18" style="edgeStyle=none;html=1;entryX=1;entryY=0.5;entryDx=0;entryDy=0;" parent="1" source="8U08_aqBoDx_YkaYGsc--8" edge="1">
                    <mxGeometry relative="1" as="geometry">
                        <mxPoint x="420" y="525" as="targetPoint"/>
                    </mxGeometry>
                </mxCell>
                <mxCell id="drY0Vkfw-3l4cMpKtFqd-35" style="edgeStyle=none;html=1;entryX=1;entryY=0.5;entryDx=0;entryDy=0;" parent="1" source="8U08_aqBoDx_YkaYGsc--8" target="drY0Vkfw-3l4cMpKtFqd-33" edge="1">
                    <mxGeometry relative="1" as="geometry"/>
                </mxCell>
                <mxCell id="8U08_aqBoDx_YkaYGsc--8" value="write" style="rounded=1;whiteSpace=wrap;html=1;" parent="1" vertex="1">
                    <mxGeometry x="580" y="530" width="120" height="60" as="geometry"/>
                </mxCell>
                <mxCell id="drY0Vkfw-3l4cMpKtFqd-36" style="edgeStyle=none;html=1;entryX=0;entryY=0.5;entryDx=0;entryDy=0;" parent="1" source="8U08_aqBoDx_YkaYGsc--14" target="drY0Vkfw-3l4cMpKtFqd-33" edge="1">
                    <mxGeometry relative="1" as="geometry"/>
                </mxCell>
                <mxCell id="drY0Vkfw-3l4cMpKtFqd-37" style="edgeStyle=none;html=1;entryX=0;entryY=0.5;entryDx=0;entryDy=0;" parent="1" source="8U08_aqBoDx_YkaYGsc--14" target="drY0Vkfw-3l4cMpKtFqd-31" edge="1">
                    <mxGeometry relative="1" as="geometry"/>
                </mxCell>
                <mxCell id="8U08_aqBoDx_YkaYGsc--14" value="read" style="rounded=1;whiteSpace=wrap;html=1;" parent="1" vertex="1">
                    <mxGeometry x="-130" y="520" width="120" height="60" as="geometry"/>
                </mxCell>
                <mxCell id="drY0Vkfw-3l4cMpKtFqd-10" style="edgeStyle=none;html=1;entryX=1;entryY=0.5;entryDx=0;entryDy=0;" parent="1" source="8U08_aqBoDx_YkaYGsc--17" target="MFj4vo6Bi99bwme-u5ZT-6" edge="1">
                    <mxGeometry relative="1" as="geometry"/>
                </mxCell>
                <mxCell id="drY0Vkfw-3l4cMpKtFqd-16" style="edgeStyle=none;html=1;entryX=1;entryY=0.5;entryDx=0;entryDy=0;" parent="1" source="8U08_aqBoDx_YkaYGsc--17" target="MFj4vo6Bi99bwme-u5ZT-5" edge="1">
                    <mxGeometry relative="1" as="geometry"/>
                </mxCell>
                <mxCell id="drY0Vkfw-3l4cMpKtFqd-27" style="edgeStyle=none;html=1;entryX=1;entryY=0.5;entryDx=0;entryDy=0;" parent="1" source="8U08_aqBoDx_YkaYGsc--17" edge="1">
                    <mxGeometry relative="1" as="geometry">
                        <mxPoint x="420" y="274.9999999999999" as="targetPoint"/>
                    </mxGeometry>
                </mxCell>
                <mxCell id="8U08_aqBoDx_YkaYGsc--17" value="read" style="rounded=1;whiteSpace=wrap;html=1;glass=0;" parent="1" vertex="1">
                    <mxGeometry x="580" y="150" width="120" height="60" as="geometry"/>
                </mxCell>
                <mxCell id="drY0Vkfw-3l4cMpKtFqd-12" style="edgeStyle=none;html=1;entryX=1;entryY=0.5;entryDx=0;entryDy=0;" parent="1" source="8U08_aqBoDx_YkaYGsc--20" target="drY0Vkfw-3l4cMpKtFqd-30" edge="1">
                    <mxGeometry relative="1" as="geometry">
                        <mxPoint x="420" y="495" as="targetPoint"/>
                    </mxGeometry>
                </mxCell>
                <mxCell id="8U08_aqBoDx_YkaYGsc--20" value="notify is pollng" style="rounded=1;whiteSpace=wrap;html=1;" parent="1" vertex="1">
                    <mxGeometry x="590" y="380" width="120" height="60" as="geometry"/>
                </mxCell>
                <mxCell id="8U08_aqBoDx_YkaYGsc--22" value="notify is pollng" style="rounded=1;whiteSpace=wrap;html=1;" parent="1" vertex="1">
                    <mxGeometry x="-150" y="90" width="120" height="60" as="geometry"/>
                </mxCell>
                <mxCell id="drY0Vkfw-3l4cMpKtFqd-11" style="edgeStyle=none;html=1;entryX=1;entryY=0.288;entryDx=0;entryDy=0;entryPerimeter=0;" parent="1" source="8U08_aqBoDx_YkaYGsc--17" target="MFj4vo6Bi99bwme-u5ZT-7" edge="1">
                    <mxGeometry relative="1" as="geometry"/>
                </mxCell>
                <mxCell id="drY0Vkfw-3l4cMpKtFqd-15" style="edgeStyle=none;html=1;entryX=1;entryY=0.231;entryDx=0;entryDy=0;entryPerimeter=0;" parent="1" source="8U08_aqBoDx_YkaYGsc--8" edge="1">
                    <mxGeometry relative="1" as="geometry">
                        <mxPoint x="420" y="660.03" as="targetPoint"/>
                    </mxGeometry>
                </mxCell>
                <mxCell id="drY0Vkfw-3l4cMpKtFqd-19" style="edgeStyle=none;html=1;entryX=0.007;entryY=0.192;entryDx=0;entryDy=0;entryPerimeter=0;" parent="1" source="8U08_aqBoDx_YkaYGsc--22" target="yHJKGlJHgNeE4cxFXmkN-1" edge="1">
                    <mxGeometry relative="1" as="geometry"/>
                </mxCell>
                <mxCell id="drY0Vkfw-3l4cMpKtFqd-20" style="edgeStyle=none;html=1;entryX=0;entryY=0.352;entryDx=0;entryDy=0;entryPerimeter=0;" parent="1" source="8U08_aqBoDx_YkaYGsc--2" target="MFj4vo6Bi99bwme-u5ZT-7" edge="1">
                    <mxGeometry relative="1" as="geometry"/>
                </mxCell>
                <mxCell id="drY0Vkfw-3l4cMpKtFqd-24" style="edgeStyle=none;html=1;entryX=0.003;entryY=0.238;entryDx=0;entryDy=0;entryPerimeter=0;" parent="1" source="8U08_aqBoDx_YkaYGsc--14" edge="1">
                    <mxGeometry relative="1" as="geometry">
                        <mxPoint x="120.89999999999964" y="660.94" as="targetPoint"/>
                    </mxGeometry>
                </mxCell>
                <mxCell id="drY0Vkfw-3l4cMpKtFqd-29" value="&lt;span style=&quot;color: rgb(0, 0, 0);&quot;&gt;ring_buffer_c&lt;/span&gt;" style="swimlane;fontStyle=0;childLayout=stackLayout;horizontal=1;startSize=30;horizontalStack=0;resizeParent=1;resizeParentMax=0;resizeLast=0;collapsible=1;marginBottom=0;whiteSpace=wrap;html=1;glass=0;swimlaneLine=1;" parent="1" vertex="1">
                    <mxGeometry x="120" y="420" width="300" height="280" as="geometry"/>
                </mxCell>
                <mxCell id="drY0Vkfw-3l4cMpKtFqd-30" value="rdma_flag_t" style="text;strokeColor=default;fillColor=none;align=left;verticalAlign=middle;spacingLeft=4;spacingRight=4;overflow=hidden;points=[[0,0.5],[1,0.5]];portConstraint=eastwest;rotatable=0;whiteSpace=wrap;html=1;" parent="drY0Vkfw-3l4cMpKtFqd-29" vertex="1">
                    <mxGeometry y="30" width="300" height="30" as="geometry"/>
                </mxCell>
                <mxCell id="drY0Vkfw-3l4cMpKtFqd-31" value="remote_write_index" style="text;strokeColor=default;fillColor=none;align=left;verticalAlign=middle;spacingLeft=4;spacingRight=4;overflow=hidden;points=[[0,0.5],[1,0.5]];portConstraint=eastwest;rotatable=0;whiteSpace=wrap;html=1;" parent="drY0Vkfw-3l4cMpKtFqd-29" vertex="1">
                    <mxGeometry y="60" width="300" height="30" as="geometry"/>
                </mxCell>
                <mxCell id="drY0Vkfw-3l4cMpKtFqd-32" value="local_write_index" style="text;strokeColor=default;fillColor=none;align=left;verticalAlign=middle;spacingLeft=4;spacingRight=4;overflow=hidden;points=[[0,0.5],[1,0.5]];portConstraint=eastwest;rotatable=0;whiteSpace=wrap;html=1;" parent="drY0Vkfw-3l4cMpKtFqd-29" vertex="1">
                    <mxGeometry y="90" width="300" height="30" as="geometry"/>
                </mxCell>
                <mxCell id="drY0Vkfw-3l4cMpKtFqd-33" value="read_index" style="text;strokeColor=default;fillColor=none;align=left;verticalAlign=middle;spacingLeft=4;spacingRight=4;overflow=hidden;points=[[0,0.5],[1,0.5]];portConstraint=eastwest;rotatable=0;whiteSpace=wrap;html=1;" parent="drY0Vkfw-3l4cMpKtFqd-29" vertex="1">
                    <mxGeometry y="120" width="300" height="30" as="geometry"/>
                </mxCell>
                <mxCell id="drY0Vkfw-3l4cMpKtFqd-34" value="buffer" style="text;strokeColor=default;fillColor=none;align=left;verticalAlign=middle;spacingLeft=4;spacingRight=4;overflow=hidden;points=[[0,0.5],[1,0.5]];portConstraint=eastwest;rotatable=0;whiteSpace=wrap;html=1;" parent="drY0Vkfw-3l4cMpKtFqd-29" vertex="1">
                    <mxGeometry y="150" width="300" height="130" as="geometry"/>
                </mxCell>
            </root>
        </mxGraphModel>
    </diagram>
</mxfile>